#Comment line ignore any data following # character 
#Hierarchical Translation and Rotation (.htr) file 
[Header]	
#Header keywords are followed by a single value 
FileType HTR		#Single word string
DataType HTRS		#Translation followed by rotation and scale data
FileVersion 1		#integer
NumSegments 84		#integer
NumFrames 2		#integer
DataFrameRate 30		#integer, data frame rate in this file
EulerRotationOrder ZYX
CalibrationUnits mm
RotationUnits Degrees
GlobalAxisofGravity Y
BoneLengthAxis Y
ScaleFactor 1.00
[SegmentNames&Hierarchy]
#CHILD	PARENT
MASTER GLOBAL
root MASTER
chest root
L_mid_tent01 root
R_mid_tent01 root
spine01 root
Bip01_Neck chest
L_humerus chest
R_humerus chest
weapon_bone chest
Bip01_Head Bip01_Neck
eye_left_bone Bip01_Head
eye_right_bone Bip01_Head
L_forearm L_humerus
L_front_hand L_forearm
L_weapon_bone L_forearm
L_front_hand01_01 L_front_hand
L_front_hand02_01 L_front_hand
L_front_hand03_01 L_front_hand
L_front_hand01_02 L_front_hand01_01
L_front_hand02_02 L_front_hand02_01
L_front_hand03_02 L_front_hand03_01
R_forearm R_humerus
R_front_hand R_forearm
R_weapon_bone R_forearm
R_front_hand01_01 R_front_hand
R_front_hand02_01 R_front_hand
R_front_hand03_01 R_front_hand
R_front_hand01_02 R_front_hand01_01
R_front_hand02_02 R_front_hand02_01
R_front_hand03_02 R_front_hand03_01
null_rope01_connect L_mid_tent01
Rope1_Seg01 null_rope01_connect
Rope1_Seg02 Rope1_Seg01
Rope1_Seg03 Rope1_Seg02
Rope1_Seg04 Rope1_Seg03
Rope1_Seg05 Rope1_Seg04
Rope1_Seg06 Rope1_Seg05
Rope1_Seg07 Rope1_Seg06
Rope1_Seg09 Rope1_Seg07
L_mid_hand01 Rope1_Seg09
L_mid_hand02 Rope1_Seg09
L_mid_hand03 Rope1_Seg09
null_rope02_connect R_mid_tent01
Rope2_Seg01 null_rope02_connect
Rope2_Seg02 Rope2_Seg01
Rope2_Seg03 Rope2_Seg02
Rope2_Seg04 Rope2_Seg03
Rope2_Seg05 Rope2_Seg04
Rope2_Seg06 Rope2_Seg05
Rope2_Seg07 Rope2_Seg06
Rope2_Seg09 Rope2_Seg07
R_mid_hand01 Rope2_Seg09
R_mid_hand02 Rope2_Seg09
R_mid_hand03 Rope2_Seg09
spine02 spine01
spine03 spine02
pelvis spine03
null_rope03_connect pelvis
null_rope04_connect pelvis
Rope3_Seg01 null_rope03_connect
Rope3_Seg02 Rope3_Seg01
Rope3_Seg03 Rope3_Seg02
Rope3_Seg04 Rope3_Seg03
Rope3_Seg05 Rope3_Seg04
Rope3_Seg06 Rope3_Seg05
Rope3_Seg07 Rope3_Seg06
Rope3_Seg08 Rope3_Seg07
Rope3_Seg09 Rope3_Seg08
R_rear_hand01 Rope3_Seg09
R_rear_hand02 Rope3_Seg09
R_rear_hand03 Rope3_Seg09
Rope4_Seg01 null_rope04_connect
Rope4_Seg02 Rope4_Seg01
Rope4_Seg03 Rope4_Seg02
Rope4_Seg04 Rope4_Seg03
Rope4_Seg05 Rope4_Seg04
Rope4_Seg06 Rope4_Seg05
Rope4_Seg07 Rope4_Seg06
Rope4_Seg08 Rope4_Seg07
Rope4_Seg09 Rope4_Seg08
L_rear_hand01 Rope4_Seg09
L_rear_hand02 Rope4_Seg09
L_rear_hand03 Rope4_Seg09
[BasePosition]
#SegmentName Tx, Ty, Tz, Rx, Ry, Rz, BoneLength
MASTER 0.000000 0.000000 0.000000 -90.000000 0.000000 0.000000 10.000000 
root 0.000000 0.000000 0.000000 0.000000 0.000000 0.000000 10.000000 
chest 0.000000 0.000000 0.000000 0.000000 0.000000 0.000000 10.000000 
L_mid_tent01 0.000000 0.000000 0.000000 0.000000 0.000000 0.000000 10.000000 
R_mid_tent01 0.000000 0.000000 0.000000 0.000000 0.000000 0.000000 10.000000 
spine01 0.000000 0.000000 0.000000 0.000000 0.000000 0.000000 10.000000 
Bip01_Neck 0.000000 0.000000 0.000000 0.000000 0.000000 0.000000 10.000000 
L_humerus 0.000000 0.000000 0.000000 0.000000 0.000000 0.000000 10.000000 
R_humerus 0.000000 0.000000 0.000000 0.000000 0.000000 0.000000 10.000000 
weapon_bone 0.000000 0.000000 0.000000 0.000000 0.000000 0.000000 10.000000 
Bip01_Head 0.000000 0.000000 0.000000 0.000000 0.000000 0.000000 10.000000 
eye_left_bone 0.000000 0.000000 0.000000 0.000000 0.000000 0.000000 10.000000 
eye_right_bone 0.000000 0.000000 0.000000 0.000000 0.000000 0.000000 10.000000 
L_forearm 0.000000 0.000000 0.000000 0.000000 0.000000 0.000000 10.000000 
L_front_hand 0.000000 0.000000 0.000000 0.000000 0.000000 0.000000 10.000000 
L_weapon_bone 0.000000 0.000000 0.000000 0.000000 0.000000 0.000000 10.000000 
L_front_hand01_01 0.000000 0.000000 0.000000 0.000000 0.000000 0.000000 10.000000 
L_front_hand02_01 0.000000 0.000000 0.000000 0.000000 0.000000 0.000000 10.000000 
L_front_hand03_01 0.000000 0.000000 0.000000 0.000000 0.000000 0.000000 10.000000 
L_front_hand01_02 0.000000 0.000000 0.000000 0.000000 0.000000 0.000000 10.000000 
L_front_hand02_02 0.000000 0.000000 0.000000 0.000000 0.000000 0.000000 10.000000 
L_front_hand03_02 0.000000 0.000000 0.000000 0.000000 0.000000 0.000000 10.000000 
R_forearm 0.000000 0.000000 0.000000 0.000000 0.000000 0.000000 10.000000 
R_front_hand 0.000000 0.000000 0.000000 0.000000 0.000000 0.000000 10.000000 
R_weapon_bone 0.000000 0.000000 0.000000 0.000000 0.000000 0.000000 10.000000 
R_front_hand01_01 0.000000 0.000000 0.000000 0.000000 0.000000 0.000000 10.000000 
R_front_hand02_01 0.000000 0.000000 0.000000 0.000000 0.000000 0.000000 10.000000 
R_front_hand03_01 0.000000 0.000000 0.000000 0.000000 0.000000 0.000000 10.000000 
R_front_hand01_02 0.000000 0.000000 0.000000 0.000000 0.000000 0.000000 10.000000 
R_front_hand02_02 0.000000 0.000000 0.000000 0.000000 0.000000 0.000000 10.000000 
R_front_hand03_02 0.000000 0.000000 0.000000 0.000000 0.000000 0.000000 10.000000 
null_rope01_connect 0.000000 0.000000 0.000000 0.000000 0.000000 0.000000 10.000000 
Rope1_Seg01 0.000000 0.000000 0.000000 0.000000 0.000000 0.000000 10.000000 
Rope1_Seg02 0.000000 0.000000 0.000000 0.000000 0.000000 0.000000 10.000000 
Rope1_Seg03 0.000000 0.000000 0.000000 0.000000 0.000000 0.000000 10.000000 
Rope1_Seg04 0.000000 0.000000 0.000000 0.000000 0.000000 0.000000 10.000000 
Rope1_Seg05 0.000000 0.000000 0.000000 0.000000 0.000000 0.000000 10.000000 
Rope1_Seg06 0.000000 0.000000 0.000000 0.000000 0.000000 0.000000 10.000000 
Rope1_Seg07 0.000000 0.000000 0.000000 0.000000 0.000000 0.000000 10.000000 
Rope1_Seg09 0.000000 0.000000 0.000000 0.000000 0.000000 0.000000 10.000000 
L_mid_hand01 0.000000 0.000000 0.000000 0.000000 0.000000 0.000000 10.000000 
L_mid_hand02 0.000000 0.000000 0.000000 0.000000 0.000000 0.000000 10.000000 
L_mid_hand03 0.000000 0.000000 0.000000 0.000000 0.000000 0.000000 10.000000 
null_rope02_connect 0.000000 0.000000 0.000000 0.000000 0.000000 0.000000 10.000000 
Rope2_Seg01 0.000000 0.000000 0.000000 0.000000 0.000000 0.000000 10.000000 
Rope2_Seg02 0.000000 0.000000 0.000000 0.000000 0.000000 0.000000 10.000000 
Rope2_Seg03 0.000000 0.000000 0.000000 0.000000 0.000000 0.000000 10.000000 
Rope2_Seg04 0.000000 0.000000 0.000000 0.000000 0.000000 0.000000 10.000000 
Rope2_Seg05 0.000000 0.000000 0.000000 0.000000 0.000000 0.000000 10.000000 
Rope2_Seg06 0.000000 0.000000 0.000000 0.000000 0.000000 0.000000 10.000000 
Rope2_Seg07 0.000000 0.000000 0.000000 0.000000 0.000000 0.000000 10.000000 
Rope2_Seg09 0.000000 0.000000 0.000000 0.000000 0.000000 0.000000 10.000000 
R_mid_hand01 0.000000 0.000000 0.000000 0.000000 0.000000 0.000000 10.000000 
R_mid_hand02 0.000000 0.000000 0.000000 0.000000 0.000000 0.000000 10.000000 
R_mid_hand03 0.000000 0.000000 0.000000 0.000000 0.000000 0.000000 10.000000 
spine02 0.000000 0.000000 0.000000 0.000000 0.000000 0.000000 10.000000 
spine03 0.000000 0.000000 0.000000 0.000000 0.000000 0.000000 10.000000 
pelvis 0.000000 0.000000 0.000000 0.000000 0.000000 0.000000 10.000000 
null_rope03_connect 0.000000 0.000000 0.000000 0.000000 0.000000 0.000000 10.000000 
null_rope04_connect 0.000000 0.000000 0.000000 0.000000 0.000000 0.000000 10.000000 
Rope3_Seg01 0.000000 0.000000 0.000000 0.000000 0.000000 0.000000 10.000000 
Rope3_Seg02 0.000000 0.000000 0.000000 0.000000 0.000000 0.000000 10.000000 
Rope3_Seg03 0.000000 0.000000 0.000000 0.000000 0.000000 0.000000 10.000000 
Rope3_Seg04 0.000000 0.000000 0.000000 0.000000 0.000000 0.000000 10.000000 
Rope3_Seg05 0.000000 0.000000 0.000000 0.000000 0.000000 0.000000 10.000000 
Rope3_Seg06 0.000000 0.000000 0.000000 0.000000 0.000000 0.000000 10.000000 
Rope3_Seg07 0.000000 0.000000 0.000000 0.000000 0.000000 0.000000 10.000000 
Rope3_Seg08 0.000000 0.000000 0.000000 0.000000 0.000000 0.000000 10.000000 
Rope3_Seg09 0.000000 0.000000 0.000000 0.000000 0.000000 0.000000 10.000000 
R_rear_hand01 0.000000 0.000000 0.000000 0.000000 0.000000 0.000000 10.000000 
R_rear_hand02 0.000000 0.000000 0.000000 0.000000 0.000000 0.000000 10.000000 
R_rear_hand03 0.000000 0.000000 0.000000 0.000000 0.000000 0.000000 10.000000 
Rope4_Seg01 0.000000 0.000000 0.000000 0.000000 0.000000 0.000000 10.000000 
Rope4_Seg02 0.000000 0.000000 0.000000 0.000000 0.000000 0.000000 10.000000 
Rope4_Seg03 0.000000 0.000000 0.000000 0.000000 0.000000 0.000000 10.000000 
Rope4_Seg04 0.000000 0.000000 0.000000 0.000000 0.000000 0.000000 10.000000 
Rope4_Seg05 0.000000 0.000000 0.000000 0.000000 0.000000 0.000000 10.000000 
Rope4_Seg06 0.000000 0.000000 0.000000 0.000000 0.000000 0.000000 10.000000 
Rope4_Seg07 0.000000 0.000000 0.000000 0.000000 0.000000 0.000000 10.000000 
Rope4_Seg08 0.000000 0.000000 0.000000 0.000000 0.000000 0.000000 10.000000 
Rope4_Seg09 0.000000 0.000000 0.000000 0.000000 0.000000 0.000000 10.000000 
L_rear_hand01 0.000000 0.000000 0.000000 0.000000 0.000000 0.000000 10.000000 
L_rear_hand02 0.000000 0.000000 0.000000 0.000000 0.000000 0.000000 10.000000 
L_rear_hand03 0.000000 0.000000 0.000000 0.000000 0.000000 0.000000 10.000000 
#Beginning of Data. Separated by tabs
#Fr	Tx	Ty	Tz	Rx	Ry	Rz	SF
[MASTER]
50 -17.249733 4432.647461 -16.807028 0.001660 0.001660 0.001660 4432.712891
51 76.226318 4526.517090 -63.020081 0.001660 0.001660 0.001660 4527.597168
[root]
50 -16.326218 -69.170532 1463.486206 -92.524109 -26.703266 -89.805305 1465.210938
51 -16.502293 -62.822014 1499.999756 -90.139618 -27.424171 -89.983124 1501.405396
[chest]
50 -84.512650 -34.090519 0.000000 -19.783875 -2.326836 172.876770 91.129311
51 -84.512650 -34.090519 0.000000 -15.128582 0.601402 171.824295 91.129311
[L_mid_tent01]
50 27.298908 22.178972 -249.918808 -2.783834 38.427834 62.807682 252.381744
51 27.298904 22.178968 -249.918808 -1.379279 36.511208 66.497498 252.381744
[R_mid_tent01]
50 23.228794 24.509907 226.238495 171.853836 -21.681679 59.750816 228.744751
51 23.228794 24.509907 226.238495 173.725174 -30.857702 58.860603 228.744751
[spine01]
50 -0.361383 -0.195265 0.000000 0.001947 0.001310 22.122398 0.410763
51 -0.361383 -0.195265 0.000000 0.001947 0.001311 22.107285 0.410763
[Bip01_Neck]
50 165.484543 71.581718 0.000119 176.643677 -1.657967 43.431911 180.302734
51 165.484543 71.581718 0.000119 176.643677 -1.657967 43.431911 180.302734
[L_humerus]
50 -13.983130 -135.272980 -120.471481 157.419632 68.484200 -110.818771 181.680161
51 -13.983130 -135.272980 -120.471481 156.317413 70.210045 -112.010223 181.680161
[R_humerus]
50 -13.983309 -135.273102 125.287651 -169.353790 -64.825172 -96.166252 184.909012
51 -13.983309 -135.273102 125.287651 -172.382248 -66.903831 -92.554047 184.909012
[weapon_bone]
50 235.964890 -300.705902 0.000000 0.000000 -89.951546 -128.212341 382.234833
51 235.964890 -300.705902 0.000000 0.000000 -89.951546 -128.212341 382.234833
[Bip01_Head]
50 213.442078 185.720886 11.705932 17.489449 5.965127 -43.835255 283.172729
51 213.442322 185.719955 11.717771 15.597246 5.484539 -43.847027 283.172791
[eye_left_bone]
50 -24.626970 125.451866 -64.772606 0.000000 -90.000000 -99.840431 143.318359
51 -24.626970 125.451866 -64.772606 0.000000 -90.000000 -99.840431 143.318359
[eye_right_bone]
50 -24.626970 125.451866 64.327362 0.000000 -89.965736 80.156380 143.117676
51 -24.626970 125.451866 64.327362 0.000000 -89.965736 80.156380 143.117676
[L_forearm]
50 322.776093 0.000000 -0.000119 0.000359 -0.002320 -107.607521 322.776093
51 322.776093 0.000000 -0.000119 0.000366 -0.002319 -107.929962 322.776093
[L_front_hand]
50 241.149185 -0.042021 -3.300071 -105.490540 -1.835781 -27.423635 241.171753
51 241.149185 -0.042021 -3.300071 -105.490540 -1.835781 -27.423635 241.171753
[L_weapon_bone]
50 156.183838 0.000000 0.000000 0.000014 0.000007 0.000001 156.183838
51 156.183838 0.000000 0.000000 0.000014 0.000007 0.000001 156.183838
[L_front_hand01_01]
50 86.095154 20.947098 -0.655860 -0.366594 -0.477154 75.385574 88.609184
51 86.095154 20.947098 -0.655860 -0.366594 -0.477154 75.385574 88.609184
[L_front_hand02_01]
50 86.935165 -11.437475 24.513514 154.399796 -59.883835 -61.369587 91.046425
51 86.935165 -11.437475 24.513514 154.399796 -59.883835 -61.369587 91.046425
[L_front_hand03_01]
50 86.637497 -14.123976 -20.424902 -153.913879 58.118130 -62.702892 90.126129
51 86.637497 -14.123976 -20.424902 -153.913849 58.118122 -62.702866 90.126129
[L_front_hand01_02]
50 71.020905 -0.000179 0.000030 0.000334 -0.002323 -106.379684 71.020905
51 71.020905 -0.000179 0.000030 0.000334 -0.002323 -106.379684 71.020905
[L_front_hand02_02]
50 71.020927 -0.000119 0.000060 0.000334 -0.002323 -106.379684 71.020927
51 71.020927 -0.000119 0.000060 0.000334 -0.002323 -106.379684 71.020927
[L_front_hand03_02]
50 71.020905 -0.000060 0.000060 0.000334 -0.002323 -106.379684 71.020905
51 71.020905 -0.000060 0.000060 0.000334 -0.002323 -106.379684 71.020905
[R_forearm]
50 322.776428 -0.000060 0.000030 0.204106 0.055002 -106.234543 322.776428
51 322.776428 -0.000060 0.000030 0.203949 0.055581 -106.559853 322.776428
[R_front_hand]
50 238.847015 -0.006795 2.210259 15.488859 -10.646104 -26.316046 238.857239
51 238.847015 -0.006795 2.210259 15.488859 -10.646104 -26.316046 238.857239
[R_weapon_bone]
50 155.664093 0.002503 -0.000030 0.003487 0.001180 -90.988930 155.664078
51 155.664093 0.002503 -0.000030 0.003487 0.001180 -90.988930 155.664078
[R_front_hand01_01]
50 87.624611 14.231146 22.918642 -154.633484 -59.950619 61.746037 91.683487
51 87.624611 14.231146 22.918642 -154.633499 -59.950634 61.746063 91.683487
[R_front_hand02_01]
50 89.356956 14.367283 -19.491137 154.602661 58.302849 63.744389 92.579636
51 89.356956 14.367283 -19.491137 154.602661 58.302849 63.744389 92.579636
[R_front_hand03_01]
50 87.286232 -22.307278 -0.143439 0.162155 -0.423168 -75.767921 90.091743
51 87.286232 -22.307278 -0.143439 0.162155 -0.423168 -75.767921 90.091743
[R_front_hand01_02]
50 71.020905 0.000060 0.000119 0.002323 -0.000334 106.381714 71.020905
51 71.020905 0.000060 0.000119 0.002323 -0.000334 106.381714 71.020905
[R_front_hand02_02]
50 71.020844 -0.000030 -0.000119 0.002323 -0.000334 106.381714 71.020836
51 71.020844 -0.000030 -0.000119 0.002323 -0.000334 106.381714 71.020836
[R_front_hand03_02]
50 71.020905 0.000000 0.000030 0.002323 -0.000334 106.381714 71.020905
51 71.020905 0.000000 0.000030 0.002323 -0.000334 106.381714 71.020905
[null_rope01_connect]
50 328.732483 0.000000 -0.000238 -131.870361 -49.290848 -174.814484 328.732483
51 328.732483 0.000000 -0.000238 -131.484222 -53.348103 -178.021027 328.732483
[Rope1_Seg01]
50 -0.000034 -0.000004 0.000153 15.693805 15.518335 -145.791977 0.000156
51 -0.000035 -0.000003 0.000153 23.275234 13.348887 -138.047302 0.000157
[Rope1_Seg02]
50 139.999863 -0.000179 0.000000 6.738243 -2.120006 11.063400 139.999863
51 139.999863 -0.000179 0.000000 5.076993 -2.828318 8.714527 139.999863
[Rope1_Seg03]
50 139.999924 0.000060 -0.000060 9.998963 2.402734 7.581038 139.999924
51 139.999924 0.000060 -0.000060 6.867926 0.067687 5.839799 139.999924
[Rope1_Seg04]
50 139.999924 -0.000060 -0.000119 11.378832 -0.747141 9.895277 139.999924
51 139.999924 -0.000060 -0.000119 7.871951 -0.921379 6.480844 139.999924
[Rope1_Seg05]
50 139.999832 0.000119 -0.000060 12.803617 -4.706818 11.218813 139.999832
51 139.999832 0.000119 -0.000060 8.062181 -3.819734 7.944423 139.999832
[Rope1_Seg06]
50 139.999954 0.000119 -0.000060 12.828240 -0.847533 5.069263 139.999954
51 139.999954 0.000119 -0.000060 8.190722 -1.564868 4.343752 139.999954
[Rope1_Seg07]
50 139.999985 0.000060 0.000000 10.531650 0.359335 2.533217 139.999985
51 139.999985 0.000060 0.000000 7.391869 -0.267575 2.249423 139.999985
[Rope1_Seg09]
50 121.602913 0.000119 -0.000089 -89.793175 -1.359789 0.847147 121.602913
51 121.602913 0.000119 -0.000089 -89.793175 -1.359789 0.847147 121.602913
[L_mid_hand01]
50 103.859421 1.038730 8.195221 130.544373 -67.584534 -38.866943 104.187431
51 103.859421 1.038730 8.195221 130.544373 -67.584534 -38.866943 104.187431
[L_mid_hand02]
50 105.572853 -4.139662 -10.864139 -168.923172 43.409309 -73.498886 106.211075
51 105.572853 -4.139662 -10.864139 -168.923172 43.409309 -73.498894 106.211075
[L_mid_hand03]
50 104.641464 17.579376 -3.913581 -6.012626 17.808172 74.893661 106.179977
51 104.641464 17.579376 -3.913581 -6.012627 17.808174 74.893669 106.179977
[null_rope02_connect]
50 328.732849 0.000179 -0.000119 -96.860428 68.201324 25.033783 328.732849
51 328.732849 0.000179 -0.000119 -109.170601 58.658936 10.562328 328.732849
[Rope2_Seg01]
50 0.000072 0.000284 0.000136 27.925535 2.704787 -41.134819 0.000323
51 0.000073 0.000288 0.000139 4.054757 -1.300718 -49.290066 0.000328
[Rope2_Seg02]
50 139.999741 -0.000060 -0.000119 -4.914581 -0.401300 -2.005890 139.999756
51 139.999741 -0.000060 -0.000119 1.680279 0.863412 0.261625 139.999756
[Rope2_Seg03]
50 140.000107 0.000030 0.000000 -4.244901 -0.205753 -1.856612 140.000107
51 140.000107 0.000030 0.000000 1.675394 0.599376 0.391270 140.000107
[Rope2_Seg04]
50 139.999802 0.000000 -0.000060 0.654828 -2.454734 1.377728 139.999802
51 139.999802 0.000000 -0.000060 6.763563 -1.181647 2.914812 139.999802
[Rope2_Seg05]
50 139.999985 -0.000060 0.000119 -3.283617 -0.440674 -1.103926 139.999985
51 139.999985 -0.000060 0.000119 -2.581067 1.424601 -1.623523 139.999985
[Rope2_Seg06]
50 139.999893 -0.000030 -0.000119 -10.021882 5.688707 -8.163148 139.999893
51 139.999893 -0.000030 -0.000119 -9.087919 4.097018 -6.502835 139.999893
[Rope2_Seg07]
50 139.999893 0.000060 -0.000060 -5.883424 9.188522 -8.735714 139.999893
51 139.999893 0.000060 -0.000060 -4.689206 4.162992 -4.870688 139.999893
[Rope2_Seg09]
50 121.338966 0.000089 -0.000060 33.793236 -1.359788 -0.847141 121.338966
51 121.338966 0.000089 -0.000060 33.793236 -1.359788 -0.847141 121.338966
[R_mid_hand01]
50 104.680779 11.144459 -10.335981 -16.212063 45.237240 70.462845 105.778534
51 104.680779 11.144459 -10.335981 -16.212063 45.237247 70.462852 105.778534
[R_mid_hand02]
50 104.070427 2.443552 8.231699 49.067368 -67.749771 39.286453 104.424065
51 104.070427 2.443552 8.231699 49.067371 -67.749794 39.286461 104.424065
[R_mid_hand03]
50 106.028137 -11.221827 -5.996406 -177.101105 15.551026 -76.585571 106.788818
51 106.028137 -11.221827 -5.996406 -177.101105 15.551026 -76.585571 106.788818
[spine02]
50 129.756927 0.001550 0.000119 0.173608 -4.055454 -10.301922 129.756927
51 129.756927 0.001550 0.000119 0.206305 -4.054894 -10.757151 129.756927
[spine03]
50 78.613907 0.081651 -4.898954 1.785604 3.885060 14.846680 78.766441
51 78.613907 0.081648 -4.898953 1.804595 3.876092 15.130122 78.766441
[pelvis]
50 169.435242 0.051022 0.000000 -0.050335 -0.182357 10.792022 169.435257
51 169.435242 0.051022 0.000000 -0.051278 -0.182091 11.385664 169.435257
[null_rope03_connect]
50 -1.257226 -2.466202 137.391083 -153.754379 -88.489227 -126.979614 137.418976
51 -1.257226 -2.466202 137.391083 17.562115 -89.157440 62.025303 137.418976
[null_rope04_connect]
50 -1.259640 -2.480268 -137.844437 -153.754379 -88.489227 -126.979614 137.872513
51 -1.259640 -2.480268 -137.844437 17.562115 -89.157440 62.025303 137.872513
[Rope3_Seg01]
50 0.000000 0.000000 0.000000 1.675125 -37.762970 -48.032909 0.000000
51 0.000000 0.000000 0.000000 5.971683 -32.608215 -53.215847 0.000000
[Rope3_Seg02]
50 139.999924 -0.000119 0.000060 2.691278 12.777549 -4.671472 139.999924
51 139.999924 -0.000119 0.000060 2.306649 12.009199 -4.059172 139.999924
[Rope3_Seg03]
50 139.999924 -0.000119 0.000119 3.929799 15.765788 -7.183293 139.999924
51 139.999924 -0.000119 0.000119 3.457874 14.639612 -6.137549 139.999924
[Rope3_Seg04]
50 139.999924 0.000119 0.000000 3.874186 13.540655 -7.487860 139.999924
51 139.999924 0.000119 0.000000 3.196855 11.228561 -5.508070 139.999924
[Rope3_Seg05]
50 139.999924 -0.000238 0.000060 -2.117994 -4.714454 4.436612 139.999924
51 139.999924 -0.000238 0.000060 -2.780362 -6.558503 5.102914 139.999924
[Rope3_Seg06]
50 139.999893 -0.000119 -0.000060 -1.517707 -4.215419 3.344403 139.999893
51 139.999893 -0.000119 -0.000060 -1.746457 -5.197473 3.483011 139.999893
[Rope3_Seg07]
50 139.999771 0.000060 -0.000119 0.022831 -1.047059 0.931281 139.999771
51 139.999771 0.000060 -0.000119 -0.153461 -1.653742 1.151410 139.999771
[Rope3_Seg08]
50 139.999985 -0.000060 0.000000 0.240895 -0.632585 0.564150 139.999985
51 139.999985 -0.000060 0.000000 0.138957 -1.008137 0.697810 139.999985
[Rope3_Seg09]
50 90.185997 -0.000179 -0.000060 89.793228 -1.359877 -0.847183 90.185997
51 90.185997 -0.000179 -0.000060 89.793228 -1.359877 -0.847183 90.185997
[R_rear_hand01]
50 103.366196 -6.073594 -10.757982 172.856537 -15.220671 -75.434441 104.101845
51 103.366196 -6.073594 -10.757982 172.856537 -15.220671 -75.434441 104.101845
[R_rear_hand02]
50 100.509819 12.039542 -7.992327 -12.874829 36.868488 72.167213 101.543350
51 100.509819 12.039542 -7.992327 -12.874829 36.868488 72.167213 101.543350
[R_rear_hand03]
50 101.539970 5.215704 5.435467 71.484581 -71.816628 21.513813 101.819031
51 101.539970 5.215704 5.435467 71.484581 -71.816628 21.513813 101.819031
[Rope4_Seg01]
50 -0.000019 -0.000272 -0.000153 -98.348213 -12.266713 -105.452393 0.000312
51 -0.000019 -0.000277 -0.000153 -98.782501 -5.735702 -101.613503 0.000317
[Rope4_Seg02]
50 139.999985 0.000060 0.000119 0.902021 -14.949064 -1.159216 139.999985
51 139.999985 0.000060 0.000119 0.973822 -14.108430 -2.256913 139.999985
[Rope4_Seg03]
50 139.999924 0.000000 -0.000238 2.837135 -17.104923 -1.690810 139.999924
51 139.999924 0.000000 -0.000238 2.702150 -16.043478 -1.828056 139.999924
[Rope4_Seg04]
50 139.999985 0.000000 0.000119 3.435519 -9.902867 0.538335 139.999985
51 139.999985 0.000000 0.000119 3.564755 -12.877534 -1.575910 139.999985
[Rope4_Seg05]
50 139.999802 -0.000060 -0.000119 0.704043 0.899045 1.263493 139.999802
51 139.999802 -0.000060 -0.000119 -1.139246 -0.767419 -1.731758 139.999802
[Rope4_Seg06]
50 139.999924 0.000000 0.000060 0.632445 -0.535183 0.488350 139.999924
51 139.999924 0.000000 0.000060 -0.430684 -0.421683 -0.783129 139.999924
[Rope4_Seg07]
50 139.999802 0.000000 0.000000 0.529503 -0.499296 0.310944 139.999802
51 139.999802 0.000000 0.000000 0.058996 -0.764703 -0.438904 139.999802
[Rope4_Seg08]
50 139.999924 0.000000 0.000119 -1.205622 -0.302963 0.192801 139.999924
51 139.999924 0.000000 0.000119 -1.500810 -0.466739 -0.264261 139.999924
[Rope4_Seg09]
50 90.185791 0.000060 0.000060 -135.617828 2.228885 0.850567 90.185791
51 90.185791 0.000060 0.000060 -135.617828 2.228885 0.850567 90.185791
[L_rear_hand01]
50 101.696655 -8.392275 -7.654577 -12.874829 -36.868488 107.832764 102.329041
51 101.696655 -8.392275 -7.654577 -12.874829 -36.868488 107.832764 102.329041
[L_rear_hand02]
50 102.726799 -1.568258 5.773216 71.484581 71.816628 158.486160 102.900848
51 102.726799 -1.568258 5.773216 71.484581 71.816628 158.486160 102.900848
[L_rear_hand03]
50 104.552910 9.721220 -10.420293 -177.714203 -24.565960 -106.089035 105.519653
51 104.552910 9.721220 -10.420293 -177.714203 -24.565960 -106.089035 105.519653
